<svg xmlns="http://www.w3.org/2000/svg" width="1024" height="1024" viewBox="0 0 1024 1024" role="img" aria-label="Driftless app icon">
  <rect width="1024" height="1024" fill="#F7F5F2"/>
  <path d="M187 800V564C187 535.281 210.281 512 239 512H239C267.719 512 291 535.281 291 564V800Z" fill="#FFB066"/>
  <path d="M369 800V372C369 343.281 392.281 320 421 320H421C449.719 320 473 343.281 473 372V800Z" fill="#FF8C2B"/>
  <path d="M551 800V276C551 247.281 574.281 224 603 224H603C631.719 224 655 247.281 655 276V800Z" fill="#F47216"/>
  <path d="M733 800V468C733 439.281 756.281 416 785 416H785C813.719 416 837 439.281 837 468V800Z" fill="#FF8C2B"/>
</svg>
